<?xml version="1.0" encoding="utf-8"?>
<!-- Generator: Adobe Illustrator 17.0.0, SVG Export Plug-In . SVG Version: 6.00 Build 0)  -->
<!DOCTYPE svg PUBLIC "-//W3C//DTD SVG 1.1//EN" "http://www.w3.org/Graphics/SVG/1.1/DTD/svg11.dtd">
<svg version="1.1" id="Layer_1" xmlns="http://www.w3.org/2000/svg" xmlns:xlink="http://www.w3.org/1999/xlink" x="0px" y="0px"
	 width="841.89px" height="595.28px" viewBox="0 0 841.89 595.28" enable-background="new 0 0 841.89 595.28" xml:space="preserve">
<g enable-background="new    ">
	<path fill="#808185" d="M588.707,79.027c15.526,0,28.712,5.409,39.531,16.228c10.818,10.819,16.228,24.004,16.228,39.531v324.566
		c0,16.098-5.409,29.544-16.228,40.362c-10.819,10.819-24.005,16.229-39.531,16.229H264.14c-16.098,0-29.543-5.409-40.362-16.229
		c-10.819-10.818-16.229-24.265-16.229-40.362V134.786c0-15.526,5.41-28.712,16.229-39.531s24.264-16.228,40.362-16.228H588.707z
		 M595.365,263.78h-39.114c2.77,6.112,4.434,12.067,4.993,17.893c0.546,5.826,0.832,12.354,0.832,19.558
		c0,18.309-3.472,35.513-10.402,51.598c-6.944,16.099-16.515,29.96-28.712,41.611c-12.21,11.651-26.631,20.948-43.275,27.879
		c-16.645,6.944-34.407,10.403-53.262,10.403c-18.869,0-36.489-3.459-52.847-10.403c-16.371-6.931-30.662-16.228-42.859-27.879
		c-12.21-11.651-21.924-25.513-29.127-41.611c-7.217-16.085-10.819-33.289-10.819-51.598c0-14.421,2.21-26.904,6.658-37.45h-41.611
		v183.921c0,4.993,1.794,9.154,5.409,12.483c3.602,3.329,7.906,4.993,12.899,4.993h303.761c4.435,0,8.452-1.664,12.067-4.993
		c3.602-3.329,5.409-7.49,5.409-12.483V263.78z M426.424,211.35c-24.421,0-45.083,8.192-62.001,24.55
		c-16.931,16.372-25.383,36.761-25.383,61.168c0,11.651,2.211,22.47,6.658,32.457c4.434,9.986,10.676,18.867,18.725,26.631
		c8.036,7.776,17.334,13.875,27.88,18.309c10.532,4.447,21.91,6.658,34.122,6.658c12.197,0,23.718-2.211,34.537-6.658
		c10.818-4.434,20.103-10.532,27.879-18.309c7.764-7.764,14.005-16.645,18.725-26.631c4.708-9.987,7.074-20.806,7.074-32.457
		c0-12.197-2.366-23.433-7.074-33.705c-4.72-10.26-10.961-19.271-18.725-27.047c-7.776-7.763-17.061-13.861-27.879-18.309
		C450.142,213.574,438.622,211.35,426.424,211.35z M525.459,126.463c-4.447,0-8.738,2.081-12.899,6.242s-6.242,8.738-6.242,13.731
		v48.269c0,4.447,2.081,8.738,6.242,12.899s8.452,6.242,12.899,6.242h49.933c5.54,0,10.26-2.081,14.148-6.242
		c3.875-4.161,5.825-8.452,5.825-12.899v-48.269c0-4.993-1.95-9.57-5.825-13.731c-3.889-4.161-8.608-6.242-14.148-6.242H525.459z"/>
</g>
</svg>
