<?xml version="1.0" encoding="utf-8"?>
<!-- Generator: Adobe Illustrator 17.0.0, SVG Export Plug-In . SVG Version: 6.00 Build 0)  -->
<!DOCTYPE svg PUBLIC "-//W3C//DTD SVG 1.1//EN" "http://www.w3.org/Graphics/SVG/1.1/DTD/svg11.dtd">
<svg version="1.1" id="Layer_1" xmlns="http://www.w3.org/2000/svg" xmlns:xlink="http://www.w3.org/1999/xlink" x="0px" y="0px"
	 width="841.89px" height="595.28px" viewBox="0 0 841.89 595.28" enable-background="new 0 0 841.89 595.28" xml:space="preserve">
<g enable-background="new    ">
	<path fill="#808185" d="M113.341,404.702c-8.322-7.763-14.98-16.501-19.973-26.215c-4.993-9.7-7.49-20.104-7.49-31.208
		c0-11.651,2.497-22.47,7.49-32.457c4.993-9.986,11.651-18.582,19.973-25.799V404.702z M141.637,272.378
		c3.875-0.546,7.49-1.104,10.819-1.664c3.329-0.546,7.204-0.832,11.651-0.832c0.546,0,1.521,0,2.913,0
		c1.378,0,2.627,0.559,3.745,1.664v151.465h-6.658c-4.447,0-8.322-0.273-11.651-0.833c-3.329-0.546-6.944-1.378-10.819-2.496
		V272.378z M199.893,279.869c2.77,1.118,4.434,1.95,4.993,2.497c3.875-18.31,11.924-35.227,24.135-50.766v191.411h-29.128V279.869z
		 M257.316,204.136c4.435-2.77,9.154-5.539,14.148-8.321c4.993-2.771,9.986-4.708,14.979-5.826v233.022h-29.128V204.136z
		 M315.571,184.995c2.77-1.105,6.371-1.664,10.818-1.664c2.771,0,5.683,0.286,8.738,0.832c3.043,0.559,5.956,0.832,8.738,0.832
		v238.016h-28.295V184.995z M359.679,189.157c9.987,2.783,19.974,6.658,29.96,11.651c1.105-3.329,2.913-6.372,5.409-9.154
		c2.497-2.771,4.851-5.54,7.074-8.322v239.68h-42.443V189.157z M417.103,169.183c25.513-23.848,57.697-35.785,96.538-35.785
		c18.855,0,36.891,3.329,54.095,9.986c17.19,6.658,32.313,15.812,45.355,27.464c13.029,11.65,23.719,25.383,32.041,41.194
		c8.322,15.812,13.588,32.873,15.812,51.182c5.54-2.21,10.949-3.875,16.229-4.993c5.267-1.105,10.949-1.664,17.061-1.664
		c11.651,0,22.47,2.08,32.457,6.241c9.986,4.161,18.438,9.987,25.383,17.477c6.931,7.49,12.483,16.229,16.645,26.215
		c4.161,9.987,6.241,20.806,6.241,32.457c0,22.197-6.658,41.195-19.974,57.007c-13.315,15.812-34.68,24.277-64.081,25.383v1.665
		h-273.8V169.183z"/>
</g>
</svg>
