<?xml version="1.0" encoding="utf-8"?>
<!-- Generator: Adobe Illustrator 17.0.0, SVG Export Plug-In . SVG Version: 6.00 Build 0)  -->
<!DOCTYPE svg PUBLIC "-//W3C//DTD SVG 1.1//EN" "http://www.w3.org/Graphics/SVG/1.1/DTD/svg11.dtd">
<svg version="1.1" id="Layer_1" xmlns="http://www.w3.org/2000/svg" xmlns:xlink="http://www.w3.org/1999/xlink" x="0px" y="0px"
	 width="841.89px" height="595.28px" viewBox="0 0 841.89 595.28" enable-background="new 0 0 841.89 595.28" xml:space="preserve">
<g enable-background="new    ">
	<path fill="#808185" d="M268.368,84.436c11.092-10.819,24.408-16.228,39.947-16.228c16.644,0,30.376,5.409,41.195,16.228
		s16.229,24.278,16.229,40.363v56.591h196.405c15.525,0,28.841,5.695,39.946,17.061c11.092,11.378,16.645,25.383,16.645,42.027
		c0,15.539-5.553,28.855-16.645,39.947c-11.105,11.105-24.421,16.645-39.946,16.645H365.738v31.624
		c0,11.105,1.938,21.781,5.825,32.041c3.875,10.272,9.154,19.284,15.812,27.047c6.657,7.776,14.277,13.875,22.886,18.31
		c8.596,4.446,17.607,6.657,27.047,6.657h125.666c16.085,0,29.4,5.279,39.946,15.812c10.533,10.546,15.812,24.134,15.812,40.778
		c0,16.099-5.553,29.544-16.645,40.362c-11.105,10.819-24.421,16.229-39.946,16.229h-127.33c-24.967,0-48.555-5.123-70.74-15.396
		c-22.197-10.26-41.611-24.408-58.255-42.443c-16.645-18.023-29.83-38.972-39.531-62.833c-9.713-23.848-14.564-49.374-14.564-76.564
		V124.799C251.724,108.714,257.263,95.255,268.368,84.436z"/>
</g>
</svg>
