<?xml version="1.0" encoding="utf-8"?>
<!-- Generator: Adobe Illustrator 17.0.0, SVG Export Plug-In . SVG Version: 6.00 Build 0)  -->
<!DOCTYPE svg PUBLIC "-//W3C//DTD SVG 1.1//EN" "http://www.w3.org/Graphics/SVG/1.1/DTD/svg11.dtd">
<svg version="1.1" id="Layer_1" xmlns="http://www.w3.org/2000/svg" xmlns:xlink="http://www.w3.org/1999/xlink" x="0px" y="0px"
	 width="841.89px" height="595.28px" viewBox="0 0 841.89 595.28" enable-background="new 0 0 841.89 595.28" xml:space="preserve">
<g enable-background="new    ">
	<path fill="#808185" d="M360.745,327.029v29.96h-37.45v183.089h-34.121V356.989h-37.45v-29.96H360.745z M351.591,143.108h1.665
		l25.799-94.041H419l-46.604,137.316v97.37h-39.946v-92.376l-46.604-142.31h39.114L351.591,143.108z M432.316,540.078v-18.31
		c-6.111,7.776-11.937,12.77-17.477,14.98c-6.111,3.329-12.21,4.993-18.309,4.993c-7.776,0-13.315-1.938-16.645-5.825
		c-3.888-6.099-5.825-13.316-5.825-21.638V382.787h31.624v119.84c0,2.224,0.273,4.031,0.832,5.409
		c0.546,1.392,0.832,2.64,0.832,3.745c1.105,1.118,3.603,1.664,7.49,1.664c1.105,0,2.211-0.13,3.329-0.416
		c1.105-0.272,3.043-1.248,5.826-2.912c3.329-2.211,6.099-4.708,8.322-7.49v-119.84h31.625v157.29H432.316z M422.33,150.598
		c0-13.315,4.435-24.407,13.315-33.289c5.539-3.875,11.365-6.788,17.477-8.738c6.099-1.938,13.315-2.913,21.638-2.913
		c14.98,0,26.904,4.447,35.786,13.316c4.434,3.888,7.763,8.608,9.986,14.147c2.211,5.553,3.329,11.378,3.329,17.477v89.88
		c0,15.539-4.447,26.917-13.315,34.121c-9.441,9.44-21.924,14.148-37.45,14.148c-15.539,0-28.022-4.708-37.45-14.148
		c-8.881-8.322-13.315-19.687-13.315-34.121V150.598z M473.095,258.787c3.875,0,7.49-1.665,10.818-4.994
		c2.771-2.77,4.161-6.098,4.161-9.986v-94.874c0-4.434-1.391-7.49-4.161-9.154c-3.888-2.77-7.489-4.161-10.818-4.161
		c-5.553,0-9.154,1.392-10.819,4.161c-2.782,1.665-4.161,4.72-4.161,9.154v94.874c0,3.329,1.105,6.658,3.329,9.986
		C463.655,257.122,467.543,258.787,473.095,258.787z M547.995,381.123c8.868,0,16.358,3.056,22.471,9.154
		c2.21,3.888,4.018,8.192,5.409,12.899c1.378,4.72,2.08,10.402,2.08,17.061v86.551c0,6.111-0.702,11.234-2.08,15.396
		c-1.392,4.161-3.199,7.634-5.409,10.403c-4.447,6.111-11.379,9.154-20.806,9.154c-5.553,0-11.105-1.105-16.645-3.329
		c-2.224-1.105-4.447-2.496-6.658-4.161c-2.224-1.664-4.447-3.602-6.657-5.825v11.651h-31.625V327.029H519.7v67.41
		c2.21-2.211,4.434-4.161,6.657-5.826c2.211-1.664,4.435-3.042,6.658-4.161c2.21-1.664,4.577-2.626,7.073-2.912
		C542.586,381.266,545.213,381.123,547.995,381.123z M519.7,510.118c1.664,2.224,4.161,4.161,7.489,5.825
		c1.105,0,2.211,0.286,3.329,0.832c1.105,0.56,2.497,0.832,4.161,0.832c2.211,0,3.875-0.416,4.993-1.248
		c1.105-0.832,2.497-1.795,4.161-2.913c0.547-1.104,0.833-4.707,0.833-10.818v-80.726c0-6.099-0.833-10.26-2.497-12.483
		c-1.664-2.77-4.721-4.161-9.154-4.161c-1.665,0-2.913,0.286-3.745,0.833c-0.832,0.559-2.081,0.832-3.745,0.832
		c-1.118,1.118-2.08,1.808-2.913,2.08c-0.832,0.286-1.807,0.976-2.912,2.081V510.118z M588.774,109.819v133.988
		c0,4.993,0.272,7.776,0.832,8.322c2.211,2.224,4.707,3.329,7.49,3.329c2.77,0,6.371-1.378,10.818-4.161
		c3.875-1.664,7.49-4.707,10.819-9.154V109.819h35.785v173.934h-35.785v-19.141c-3.329,3.888-6.801,6.944-10.403,9.155
		c-3.614,2.224-7.359,4.72-11.234,7.49c-2.783,1.119-5.969,2.367-9.57,3.745c-3.615,1.392-6.802,2.081-9.571,2.081
		c-8.322,0-14.707-3.043-19.141-9.154c-1.665-2.211-3.199-5.124-4.577-8.738c-1.392-3.602-2.081-8.179-2.081-13.732V109.819H588.774
		z M686.976,465.177h-59.92v29.96c0,8.882,1.105,14.434,3.329,16.645c1.664,2.782,5.266,4.161,10.818,4.161
		c2.211,0,4.161-0.273,5.825-0.832c1.665-0.547,3.043-1.105,4.161-1.665c1.665-1.664,2.627-4.018,2.913-7.073
		c0.273-3.043,0.416-6.788,0.416-11.235v-7.49h32.457v7.49c0,15.539-3.889,28.022-11.651,37.45
		c-7.776,7.775-19.7,11.651-35.785,11.651c-13.315,0-24.421-4.435-33.289-13.316c-7.776-9.427-11.651-21.352-11.651-35.785v-70.738
		c0-12.757,4.435-23.575,13.315-32.457c8.868-8.868,20.247-13.315,34.121-13.315c14.421,0,25.513,3.888,33.289,11.651
		c3.875,4.447,6.788,9.297,8.738,14.563c1.938,5.279,2.913,11.794,2.913,19.558V465.177z M630.385,409.418
		c-1.665,1.665-2.641,3.889-2.913,6.658c-0.286,2.782-0.416,5.553-0.416,8.322v14.979h27.463v-14.979
		c0-5.54-1.118-10.533-3.329-14.98c-1.118-0.546-2.496-1.105-4.161-1.664c-1.664-0.546-3.614-0.832-5.825-0.832
		c-2.783,0-4.993,0.286-6.658,0.832C632.882,408.313,631.49,408.872,630.385,409.418z"/>
</g>
</svg>
